<svg width="40" height="40" viewBox="0 0 40 40" fill="none" xmlns="http://www.w3.org/2000/svg">
<path d="M20 40C21.3762 40.0016 22.7188 39.6172 23.8411 38.9003C24.9634 38.1834 25.8096 37.1697 26.2622 36H13.7378C14.1904 37.1697 15.0366 38.1834 16.1589 38.9003C17.2812 39.6172 18.6238 40.0016 20 40ZM35.5556 25.172V16C35.5556 9.566 30.7 4.146 24.1222 2.516C23.4711 1.04 21.88 0 20 0C18.12 0 16.5289 1.04 15.8778 2.516C9.3 4.148 4.44445 9.566 4.44445 16V25.172L0.651113 28.586C0.444352 28.7714 0.280379 28.9918 0.168634 29.2345C0.0568892 29.4771 -0.000420998 29.7373 2.32816e-06 30V32C2.32816e-06 32.5304 0.234129 33.0391 0.650876 33.4142C1.06762 33.7893 1.63285 34 2.22222 34H37.7778C38.3671 34 38.9324 33.7893 39.3491 33.4142C39.7659 33.0391 40 32.5304 40 32V30C40.0004 29.7373 39.9431 29.4771 39.8314 29.2345C39.7196 28.9918 39.5557 28.7714 39.3489 28.586L35.5556 25.172Z" fill="#5C5C5C"/>
</svg>
