<svg width="576" height="512" viewBox="0 0 576 512" fill="none" xmlns="http://www.w3.org/2000/svg">
<g clip-path="url(#clip0_837_8)">
<path d="M62.6 2.30006C46.2 -4.29994 27.6 3.60006 20.9 20.0001C7.4 53.4001 0 89.9001 0 128C0 166.1 7.4 202.6 20.9 236C27.5 252.4 46.2 260.3 62.6 253.7C79 247.1 86.9 228.4 80.3 212C69.8 186.1 64 157.8 64 128C64 98.2001 69.8 69.9001 80.3 44.0001C86.9 27.6001 79 9.00006 62.6 2.30006ZM513.4 2.30006C497 9.00006 489.1 27.6001 495.7 44.0001C506.2 69.9001 512 98.2001 512 128C512 157.8 506.2 186.1 495.7 212C489.1 228.4 497 247 513.4 253.7C529.8 260.4 548.4 252.4 555.1 236C568.6 202.6 576 166.1 576 128C576 89.9001 568.6 53.4001 555.1 20.0001C548.4 3.60006 529.8 -4.29994 513.4 2.30006ZM340.1 165.2C347.6 154.7 352 141.9 352 128C352 92.7001 323.3 64.0001 288 64.0001C252.7 64.0001 224 92.7001 224 128C224 141.9 228.4 154.7 235.9 165.2L98.9 466.8C91.6 482.9 98.7 501.9 114.8 509.2C130.9 516.5 149.9 509.4 157.2 493.3L177.7 448H398.3L418.9 493.2C426.2 509.3 445.2 516.4 461.3 509.1C477.4 501.8 484.5 482.8 477.2 466.7L340.1 165.2ZM369.2 384H206.8L221.3 352H354.6L369.1 384H369.2ZM288 205.3L325.6 288H250.4L288 205.3ZM163.3 73.6001C168.6 61.5001 163.1 47.3001 150.9 42.0001C138.7 36.7001 124.6 42.2001 119.3 54.4001C109.5 77.0001 104 101.9 104 128C104 154.1 109.5 179 119.3 201.6C124.6 213.7 138.8 219.3 150.9 214C163 208.7 168.6 194.5 163.3 182.4C156 165.8 152 147.4 152 128C152 108.6 156 90.2001 163.3 73.6001ZM456.7 54.4001C451.4 42.3001 437.2 36.7001 425.1 42.0001C413 47.3001 407.4 61.5001 412.7 73.6001C420 90.2001 424 108.6 424 128C424 147.4 420 165.8 412.7 182.4C407.4 194.5 412.9 208.7 425.1 214C437.3 219.3 451.4 213.8 456.7 201.6C466.5 179 472 154.1 472 128C472 101.9 466.5 77.0001 456.7 54.4001Z" fill="#0077C2 "/>
</g>
<defs>
<clipPath id="clip0_837_8">
<rect width="576" height="512" fill="white"/>
</clipPath>
</defs>
</svg>
