<svg width="21" height="21" viewBox="0 0 21 21" fill="none" xmlns="http://www.w3.org/2000/svg">
<path d="M9.45307 2.875V6.91667C9.45308 7.25132 9.38699 7.58268 9.25861 7.89173C9.13023 8.20078 8.94208 8.48144 8.70496 8.71759C8.46784 8.95374 8.18642 9.14074 7.87684 9.26786C7.56727 9.39497 7.23564 9.4597 6.90099 9.45833H2.88016C2.54641 9.46036 2.21569 9.39497 1.90782 9.2661C1.59995 9.13722 1.32127 8.94751 1.08849 8.70833C0.852622 8.47361 0.665772 8.19434 0.538805 7.88676C0.411838 7.57918 0.347288 7.24942 0.348907 6.91667V2.88542C0.348901 2.21313 0.615252 1.56822 1.08966 1.09186C1.56406 0.615503 2.20787 0.346505 2.88016 0.34375H6.91141C7.24481 0.34407 7.57483 0.410524 7.88237 0.539262C8.18992 0.668001 8.46887 0.856467 8.70307 1.09375C8.94051 1.32567 9.12918 1.60273 9.25798 1.90863C9.38678 2.21452 9.45311 2.54309 9.45307 2.875ZM20.651 2.88542V6.91667C20.6456 7.58729 20.3775 8.22907 19.9043 8.70426C19.431 9.17945 18.7903 9.45018 18.1197 9.45833H14.0781C13.4043 9.45421 12.7584 9.18912 12.276 8.71875C12.0403 8.48176 11.8536 8.2006 11.7267 7.89137C11.5998 7.58214 11.5351 7.25092 11.5364 6.91667V2.88542C11.535 2.55176 11.6006 2.22121 11.7295 1.91343C11.8583 1.60564 12.0477 1.32689 12.2864 1.09375C12.5206 0.856467 12.7996 0.668001 13.1071 0.539262C13.4146 0.410524 13.7447 0.34407 14.0781 0.34375H18.1093C18.7817 0.349195 19.4251 0.618725 19.9005 1.0942C20.376 1.56968 20.6455 2.21301 20.651 2.88542ZM20.651 14.0833V18.1146C20.6456 18.7852 20.3775 19.427 19.9043 19.9022C19.431 20.3774 18.7903 20.6481 18.1197 20.6562H14.0781C13.4 20.6631 12.746 20.4053 12.2552 19.9375C12.0185 19.7012 11.8312 19.4202 11.7043 19.1108C11.5773 18.8014 11.5131 18.4698 11.5156 18.1354V14.1042C11.5142 13.7705 11.5799 13.44 11.7087 13.1322C11.8376 12.8244 12.0269 12.5457 12.2656 12.3125C12.4998 12.0753 12.7788 11.8868 13.0863 11.7581C13.3938 11.6294 13.7238 11.5629 14.0572 11.5625H18.0885C18.7609 11.5679 19.4042 11.8375 19.8797 12.313C20.3552 12.7884 20.6247 13.4318 20.6302 14.1042L20.651 14.0833ZM9.45307 14.0937V18.125C9.44488 18.7974 9.17271 19.4396 8.69528 19.9131C8.21785 20.3867 7.57342 20.6536 6.90099 20.6562H2.88016C2.54736 20.6576 2.21759 20.5931 1.90986 20.4664C1.60213 20.3397 1.32254 20.1533 1.08722 19.9179C0.851897 19.6826 0.665499 19.403 0.53878 19.0953C0.412061 18.7876 0.347529 18.4578 0.348907 18.125V14.0937C0.35159 13.4213 0.618482 12.7769 1.09201 12.2995C1.56555 11.822 2.20777 11.5499 2.88016 11.5417H6.91141C7.58684 11.5475 8.23337 11.8166 8.71349 12.2917C9.18859 12.7709 9.45451 13.4189 9.45307 14.0937Z" fill="#5C5C5C"/>
</svg>
