<svg width="25" height="25" viewBox="0 0 25 25" fill="none" xmlns="http://www.w3.org/2000/svg">
<path d="M11.8257 0.159518L0.669948 5.81552C0.464312 5.91917 0.293895 6.06879 0.176178 6.24904C0.058461 6.42929 -0.00232039 6.63369 6.77557e-05 6.84126V18.1564C6.77557e-05 18.5798 0.255515 18.9704 0.669948 19.1774L11.8302 24.8413C12.0342 24.9452 12.2661 25 12.5023 25C12.7384 25 12.9703 24.9452 13.1744 24.8413L24.3301 19.1814C24.7446 18.9696 25 18.579 25 18.1603V6.84048C25 6.41706 24.7446 6.02645 24.3257 5.81474L13.1753 0.158737C12.9712 0.0547739 12.7393 0 12.5032 0C12.267 0 12.0351 0.0547739 11.831 0.158737L11.8257 0.159518Z" fill="#F5F5F5"/>
</svg>
