<svg width="42" height="42" viewBox="0 0 42 42" fill="none" xmlns="http://www.w3.org/2000/svg">
<path d="M21 15.7588C22.8565 15.7588 24.637 16.4962 25.9497 17.809C27.2625 19.1218 28 20.9022 28 22.7588C28 24.6153 27.2625 26.3957 25.9497 27.7085C24.637 29.0213 22.8565 29.7588 21 29.7588C19.1434 29.7588 17.363 29.0213 16.0502 27.7085C14.7375 26.3957 14 24.6153 14 22.7588C14 20.9022 14.7375 19.1218 16.0502 17.809C17.363 16.4962 19.1434 15.7588 21 15.7588ZM21 18.3838C19.8396 18.3838 18.7268 18.8447 17.9064 19.6652C17.0859 20.4856 16.625 21.5984 16.625 22.7588C16.625 23.9191 17.0859 25.0319 17.9064 25.8523C18.7268 26.6728 19.8396 27.1338 21 27.1338C22.1603 27.1338 23.2731 26.6728 24.0936 25.8523C24.914 25.0319 25.375 23.9191 25.375 22.7588C25.375 21.5984 24.914 20.4856 24.0936 19.6652C23.2731 18.8447 22.1603 18.3838 21 18.3838ZM21 9.625C29.0727 9.625 36.043 15.1375 37.9767 22.862C38.0614 23.1997 38.0085 23.5571 37.8297 23.8558C37.6508 24.1544 37.3606 24.3698 37.023 24.4545C36.6853 24.5392 36.3278 24.4863 36.0292 24.3074C35.7305 24.1286 35.5152 23.8384 35.4305 23.5008C34.6202 20.2868 32.7603 17.4354 30.1455 15.3985C27.5307 13.3616 24.3108 12.2559 20.9964 12.2567C17.6819 12.2575 14.4625 13.3648 11.8487 15.4029C9.23497 17.4411 7.37639 20.2934 6.56771 23.5078C6.526 23.6751 6.45174 23.8325 6.34918 23.9711C6.24662 24.1097 6.11777 24.2268 5.96997 24.3156C5.82217 24.4044 5.65833 24.4632 5.4878 24.4887C5.31727 24.5142 5.14339 24.5058 4.97608 24.4641C4.80878 24.4224 4.65133 24.3482 4.51272 24.2456C4.37412 24.143 4.25707 24.0142 4.16826 23.8664C4.07945 23.7186 4.02063 23.5548 3.99514 23.3842C3.96965 23.2137 3.978 23.0398 4.01971 22.8725C4.96793 19.0873 7.15405 15.7276 10.2306 13.3274C13.3072 10.9271 17.0978 9.62393 21 9.625Z" fill="#333333"/>
<path d="M3.70703 2.29285L39.0624 37.6482" stroke="#333333" stroke-width="2" stroke-linecap="round"/>
</svg>
