<svg width="25" height="25" viewBox="0 0 25 25" fill="none" xmlns="http://www.w3.org/2000/svg">
<path d="M20.3021 5.80208C21.1553 6.89751 21.6173 8.24695 21.6146 9.63542C21.6146 10.5104 21.4344 11.3438 21.1094 12.1C20.2082 11.677 19.2247 11.4579 18.2292 11.4583C16.8147 11.456 15.4353 11.8988 14.2865 12.724L10.2656 8.70312C9.72187 8.15937 9.49687 7.34583 9.86146 6.66979C10.2922 5.87012 10.8921 5.17395 11.6193 4.62975C12.3466 4.08555 13.1837 3.7064 14.0724 3.5187C14.9611 3.33101 15.88 3.33927 16.7652 3.54293C17.6504 3.74658 18.4806 4.14072 19.1979 4.69792L21.5833 2.3125C21.6554 2.23785 21.7415 2.17829 21.8368 2.1373C21.9321 2.09631 22.0346 2.07472 22.1384 2.07377C22.2421 2.07282 22.345 2.09253 22.441 2.13177C22.537 2.17101 22.6243 2.22898 22.6977 2.30229C22.7711 2.37561 22.8291 2.46281 22.8685 2.55881C22.9078 2.6548 22.9276 2.75767 22.9268 2.8614C22.9259 2.96513 22.9044 3.06766 22.8635 3.16299C22.8226 3.25833 22.7631 3.34456 22.6885 3.41667L20.3021 5.80208ZM11.4583 18.2292C11.456 16.8147 11.8988 15.4353 12.724 14.2865L8.70312 10.2656C8.15937 9.72187 7.34583 9.49688 6.66979 9.86146C5.87012 10.2922 5.17394 10.8921 4.62974 11.6193C4.08555 12.3466 3.7064 13.1837 3.5187 14.0724C3.331 14.9611 3.33927 15.88 3.54292 16.7652C3.74658 17.6504 4.14072 18.4806 4.69792 19.1979L2.3125 21.5833C2.23785 21.6554 2.17829 21.7415 2.1373 21.8368C2.09631 21.9321 2.07471 22.0346 2.07376 22.1384C2.07281 22.2421 2.09253 22.345 2.13177 22.441C2.17101 22.5371 2.22897 22.6243 2.30229 22.6977C2.37561 22.7711 2.46281 22.8291 2.55881 22.8685C2.6548 22.9078 2.75766 22.9276 2.8614 22.9268C2.96513 22.9259 3.06766 22.9044 3.16299 22.8635C3.25833 22.8226 3.34456 22.7631 3.41666 22.6885L5.80208 20.3031C6.89751 21.1563 8.24694 21.6183 9.63541 21.6156C10.5104 21.6156 11.3437 21.4354 12.1 21.1104C11.6768 20.2089 11.4577 19.2251 11.4583 18.2292ZM13.3719 17.1583C13.6441 17.091 13.8999 16.9694 14.124 16.8008C14.3481 16.6322 14.5358 16.4202 14.676 16.1773C14.8161 15.9344 14.9058 15.6657 14.9397 15.3874C14.9735 15.109 14.9508 14.8267 14.8729 14.5573L14.6667 13.8427C15.1257 13.4431 15.6477 13.1221 16.2115 12.8927L16.7312 13.4385C16.9259 13.6432 17.1601 13.8062 17.4196 13.9176C17.6792 14.029 17.9587 14.0864 18.2411 14.0864C18.5236 14.0864 18.8031 14.029 19.0627 13.9176C19.3222 13.8062 19.5564 13.6432 19.751 13.4385L20.2646 12.899C20.8294 13.1314 21.3518 13.4559 21.8104 13.8594L21.6167 14.5156C21.5366 14.7866 21.5125 15.071 21.5459 15.3515C21.5792 15.6321 21.6692 15.9029 21.8105 16.1476C21.9518 16.3923 22.1414 16.6056 22.3677 16.7747C22.594 16.9438 22.8524 17.0651 23.1271 17.1312L23.6885 17.2667C23.7908 17.8901 23.7929 18.5259 23.6948 19.15L23.0865 19.3C22.8145 19.3675 22.5589 19.4891 22.335 19.6577C22.1111 19.8262 21.9235 20.0382 21.7835 20.281C21.6434 20.5237 21.5538 20.7922 21.5199 21.0704C21.4861 21.3486 21.5087 21.6308 21.5865 21.9L21.7917 22.6146C21.3327 23.0146 20.8107 23.336 20.2469 23.5656L19.7281 23.0187C19.5335 22.8139 19.2992 22.6507 19.0396 22.5393C18.7799 22.4278 18.5003 22.3703 18.2177 22.3703C17.9351 22.3703 17.6555 22.4278 17.3958 22.5393C17.1362 22.6507 16.9019 22.8139 16.7073 23.0187L16.1937 23.5583C15.629 23.3262 15.1066 23.002 14.6479 22.599L14.8427 21.9417C14.9226 21.6708 14.9465 21.3865 14.9131 21.106C14.8797 20.8256 14.7896 20.5549 14.6484 20.3104C14.5071 20.0658 14.3176 19.8526 14.0913 19.6835C13.8651 19.5145 13.6069 19.3932 13.3323 19.3271L12.7698 19.1917C12.6675 18.5682 12.6654 17.9324 12.7635 17.3083L13.3719 17.1583ZM16.7187 18.2292C16.7187 19.0917 17.3958 19.7917 18.2292 19.7917C19.0625 19.7917 19.7396 19.0917 19.7396 18.2292C19.7396 17.3656 19.0625 16.6667 18.2292 16.6667C17.3958 16.6667 16.7187 17.3656 16.7187 18.2292Z" fill="#F5F5F5"/>
</svg>
