<svg width="25" height="25" viewBox="0 0 25 25" fill="none" xmlns="http://www.w3.org/2000/svg">
<path fill-rule="evenodd" clip-rule="evenodd" d="M6.25 2.08331C5.4212 2.08331 4.62634 2.41255 4.04029 2.9986C3.45424 3.58466 3.125 4.37951 3.125 5.20831V19.7916C3.125 20.6204 3.45424 21.4153 4.04029 22.0014C4.62634 22.5874 5.4212 22.9166 6.25 22.9166H12.5C13.3288 22.9166 14.1237 22.5874 14.7097 22.0014C15.2958 21.4153 15.625 20.6204 15.625 19.7916V5.20831C15.625 4.37951 15.2958 3.58466 14.7097 2.9986C14.1237 2.41255 13.3288 2.08331 12.5 2.08331H6.25ZM16.9719 7.59686C17.1672 7.40157 17.4321 7.29187 17.7083 7.29187C17.9845 7.29187 18.2495 7.40157 18.4448 7.59686L22.6115 11.7635C22.8067 11.9589 22.9164 12.2238 22.9164 12.5C22.9164 12.7762 22.8067 13.0411 22.6115 13.2364L18.4448 17.4031C18.2483 17.5929 17.9852 17.6978 17.7121 17.6955C17.439 17.6931 17.1777 17.5836 16.9846 17.3904C16.7914 17.1973 16.6819 16.936 16.6795 16.6629C16.6771 16.3898 16.7821 16.1266 16.9719 15.9302L19.3604 13.5416H10.4167C10.1404 13.5416 9.87545 13.4319 9.6801 13.2366C9.48475 13.0412 9.375 12.7762 9.375 12.5C9.375 12.2237 9.48475 11.9588 9.6801 11.7634C9.87545 11.5681 10.1404 11.4583 10.4167 11.4583H19.3604L16.9719 9.06977C16.7766 8.87443 16.6669 8.60953 16.6669 8.33331C16.6669 8.0571 16.7766 7.7922 16.9719 7.59686Z" fill="#F5F5F5"/>
</svg>
