<svg width="110" height="110" viewBox="0 0 110 110" fill="none" xmlns="http://www.w3.org/2000/svg">
<rect width="110" height="110" rx="55" fill="#F5F5F5"/>
<path d="M55 55.0001C51.7917 55.0001 49.0451 53.8577 46.7604 51.573C44.4757 49.2883 43.3333 46.5417 43.3333 43.3334C43.3333 40.1251 44.4757 37.3786 46.7604 35.0938C49.0451 32.8091 51.7917 31.6667 55 31.6667C58.2083 31.6667 60.9549 32.8091 63.2396 35.0938C65.5243 37.3786 66.6667 40.1251 66.6667 43.3334C66.6667 46.5417 65.5243 49.2883 63.2396 51.573C60.9549 53.8577 58.2083 55.0001 55 55.0001ZM31.6667 78.3334V70.1668C31.6667 68.514 32.0925 66.9954 32.9442 65.6109C33.7958 64.2265 34.9256 63.1687 36.3333 62.4376C39.3472 60.9306 42.4097 59.8009 45.5208 59.0484C48.6319 58.2959 51.7917 57.9187 55 57.9167C58.2083 57.9148 61.368 58.292 64.4792 59.0484C67.5903 59.8048 70.6528 60.9345 73.6667 62.4376C75.0764 63.1667 76.2071 64.2245 77.0587 65.6109C77.9104 66.9973 78.3353 68.5159 78.3333 70.1668V78.3334H31.6667Z" fill="#5C5C5C"/>
<path d="M98.772 73.3264L104.673 79.2276L90.9011 93H85V87.0974L98.772 73.3264ZM100.739 71.3579L103.69 68.4073C103.95 68.1465 104.304 68 104.673 68C105.042 68 105.396 68.1465 105.657 68.4073L109.592 72.3415C109.721 72.4707 109.824 72.6241 109.894 72.793C109.964 72.9619 110 73.1429 110 73.3257C110 73.5085 109.964 73.6896 109.894 73.8584C109.824 74.0273 109.721 74.1807 109.592 74.3099L106.64 77.2606L100.739 71.3579Z" fill="#5C5C5C"/>
</svg>
