<svg width="80" height="80" viewBox="0 0 80 80" fill="none" xmlns="http://www.w3.org/2000/svg">
<rect width="80" height="80" rx="40" fill="#F5F5F5"/>
<path d="M40 40C37.4792 40 35.3212 39.1024 33.526 37.3073C31.7309 35.5121 30.8333 33.3542 30.8333 30.8333C30.8333 28.3125 31.7309 26.1545 33.526 24.3594C35.3212 22.5642 37.4792 21.6667 40 21.6667C42.5208 21.6667 44.6788 22.5642 46.474 24.3594C48.2691 26.1545 49.1667 28.3125 49.1667 30.8333C49.1667 33.3542 48.2691 35.5121 46.474 37.3073C44.6788 39.1024 42.5208 40 40 40ZM21.6667 58.3333V51.9167C21.6667 50.618 22.0012 49.4248 22.6704 48.3371C23.3396 47.2493 24.2272 46.4182 25.3333 45.8437C27.7014 44.6597 30.1076 43.7721 32.5521 43.1808C34.9965 42.5896 37.4792 42.2932 40 42.2917C42.5208 42.2901 45.0035 42.5865 47.4479 43.1808C49.8924 43.7751 52.2986 44.6628 54.6667 45.8437C55.7743 46.4167 56.6627 47.2478 57.3319 48.3371C58.001 49.4264 58.3349 50.6196 58.3333 51.9167V58.3333H21.6667Z" fill="#5C5C5C"/>
</svg>
