<svg width="25" height="25" viewBox="0 0 25 25" fill="none" xmlns="http://www.w3.org/2000/svg">
<path fill-rule="evenodd" clip-rule="evenodd" d="M14.8 5.03126C15.2722 5.17709 15.7236 5.36459 16.1541 5.59376L18.0635 4.44793C18.2626 4.32851 18.4959 4.27903 18.7263 4.30734C18.9568 4.33565 19.1711 4.44012 19.3354 4.60418L20.3958 5.66459C20.5599 5.82887 20.6643 6.04323 20.6927 6.27366C20.721 6.50409 20.6715 6.73737 20.5521 6.93647L19.4062 8.84584C19.6354 9.2764 19.8229 9.72779 19.9687 10.2L22.1281 10.7406C22.3534 10.7971 22.5533 10.9271 22.6962 11.1102C22.839 11.2933 22.9166 11.5188 22.9166 11.7511V13.249C22.9166 13.4812 22.839 13.7067 22.6962 13.8898C22.5533 14.0729 22.3534 14.203 22.1281 14.2594L19.9687 14.8C19.8229 15.2722 19.6354 15.7236 19.4062 16.1542L20.5521 18.0636C20.6715 18.2626 20.721 18.4959 20.6927 18.7264C20.6643 18.9568 20.5599 19.1712 20.3958 19.3354L19.3354 20.3958C19.1711 20.5599 18.9568 20.6644 18.7263 20.6927C18.4959 20.721 18.2626 20.6715 18.0635 20.5521L16.1541 19.4063C15.7236 19.6354 15.2722 19.8229 14.8 19.9688L14.2594 22.1281C14.2029 22.3534 14.0728 22.5533 13.8898 22.6962C13.7067 22.8391 13.4812 22.9167 13.2489 22.9167H11.751C11.5188 22.9167 11.2932 22.8391 11.1102 22.6962C10.9271 22.5533 10.797 22.3534 10.7406 22.1281L10.2 19.9688C9.73195 19.8241 9.27857 19.6358 8.84581 19.4063L6.93644 20.5521C6.73734 20.6715 6.50406 20.721 6.27363 20.6927C6.0432 20.6644 5.82883 20.5599 5.66456 20.3958L4.60415 19.3354C4.44009 19.1712 4.33562 18.9568 4.30731 18.7264C4.279 18.4959 4.32848 18.2626 4.4479 18.0636L5.59373 16.1542C5.36419 15.7214 5.17586 15.268 5.03123 14.8L2.87185 14.2594C2.64677 14.203 2.44696 14.0731 2.30411 13.8902C2.16126 13.7074 2.08355 13.482 2.08331 13.25V11.7521C2.08332 11.5199 2.16092 11.2943 2.30379 11.1113C2.44666 10.9282 2.6466 10.7981 2.87185 10.7417L5.03123 10.2011C5.17706 9.72883 5.36456 9.27744 5.59373 8.84689L4.4479 6.93751C4.32848 6.73841 4.279 6.50513 4.30731 6.2747C4.33562 6.04428 4.44009 5.82991 4.60415 5.66564L5.66456 4.60418C5.82883 4.44012 6.0432 4.33565 6.27363 4.30734C6.50406 4.27903 6.73734 4.32851 6.93644 4.44793L8.84581 5.59376C9.27637 5.36459 9.72776 5.17709 10.2 5.03126L10.7406 2.87189C10.797 2.6468 10.9269 2.44699 11.1098 2.30414C11.2926 2.16129 11.5179 2.08358 11.75 2.08334H13.2479C13.4801 2.08335 13.7057 2.16095 13.8887 2.30382C14.0718 2.44669 14.2019 2.64663 14.2583 2.87189L14.8 5.03126ZM12.5 16.6667C13.605 16.6667 14.6649 16.2277 15.4463 15.4463C16.2277 14.6649 16.6666 13.6051 16.6666 12.5C16.6666 11.3949 16.2277 10.3351 15.4463 9.55373C14.6649 8.77233 13.605 8.33334 12.5 8.33334C11.3949 8.33334 10.3351 8.77233 9.5537 9.55373C8.7723 10.3351 8.33331 11.3949 8.33331 12.5C8.33331 13.6051 8.7723 14.6649 9.5537 15.4463C10.3351 16.2277 11.3949 16.6667 12.5 16.6667Z" fill="#F5F5F5"/>
</svg>
