<svg width="25" height="25" viewBox="0 0 25 25" fill="none" xmlns="http://www.w3.org/2000/svg">
<g clip-path="url(#clip0_878_3436)">
<path d="M12.5 25C9.18479 25 6.00537 23.683 3.66117 21.3388C1.31696 18.9946 0 15.8152 0 12.5C0 9.18479 1.31696 6.00537 3.66117 3.66117C6.00537 1.31696 9.18479 0 12.5 0C15.8152 0 18.9946 1.31696 21.3388 3.66117C23.683 6.00537 25 9.18479 25 12.5C25 15.8152 23.683 18.9946 21.3388 21.3388C18.9946 23.683 15.8152 25 12.5 25ZM22.1875 15C22.6103 13.3602 22.6103 11.6398 22.1875 10H17.4125C17.5283 11.6647 17.5283 13.3353 17.4125 15H22.1875ZM21.1625 17.5H17.1375C16.9281 19.0067 16.5291 20.4809 15.95 21.8875C18.1459 21.0775 19.9897 19.5255 21.1625 17.5ZM10.1 15H14.9C15.0357 13.3361 15.0357 11.6639 14.9 10H10.1C9.96433 11.6639 9.96433 13.3361 10.1 15ZM10.4125 17.5C10.925 20.5 11.825 22.5 12.5 22.5C13.175 22.5 14.075 20.5 14.5875 17.5H10.4125ZM2.8125 15H7.5875C7.47166 13.3353 7.47166 11.6647 7.5875 10H2.8125C2.38966 11.6398 2.38966 13.3602 2.8125 15ZM3.8375 17.5C5.01032 19.5255 6.8541 21.0775 9.05 21.8875C8.525 20.6875 8.125 19.1875 7.8625 17.5H3.8375ZM21.1625 7.5C19.9897 5.47451 18.1459 3.92254 15.95 3.1125C16.475 4.3125 16.875 5.8125 17.1375 7.5H21.1625ZM10.4125 7.5H14.5875C14.075 4.5 13.175 2.5 12.5 2.5C11.825 2.5 10.925 4.5 10.4125 7.5ZM3.8375 7.5H7.8625C8.1125 5.8125 8.525 4.3125 9.05 3.1125C6.8541 3.92254 5.01032 5.47451 3.8375 7.5Z" fill="#F5F5F5"/>
</g>
<defs>
<clipPath id="clip0_878_3436">
<rect width="25" height="25" fill="white"/>
</clipPath>
</defs>
</svg>
