<svg width="25" height="25" viewBox="0 0 25 25" fill="none" xmlns="http://www.w3.org/2000/svg">
<path fill-rule="evenodd" clip-rule="evenodd" d="M12.8703 0.0853929C12.7534 0.0291175 12.6266 0 12.4982 0C12.3698 0 12.243 0.0291175 12.1261 0.0853929L7.4112 2.35814L12.4946 4.80982L17.5816 2.35624L12.8703 0.0853929ZM6.56636 9.85404V4.04082L11.5994 6.46775V12.892L7.08945 10.7201C6.93243 10.6445 6.79928 10.5226 6.70589 10.3691C6.6125 10.2155 6.56282 10.0367 6.56277 9.85404H6.56636ZM13.397 22.6302V16.2726L18.164 18.572V24.9962L13.6594 22.8243C13.561 22.777 13.4733 22.7112 13.397 22.6302ZM19.9615 25V18.572L25 16.1431V21.9582C25 22.1409 24.9503 22.3197 24.8569 22.4733C24.7635 22.6268 24.6303 22.7487 24.4733 22.8243L19.9615 25ZM11.5958 16.2726V22.6378C11.5211 22.7153 11.4341 22.7785 11.3388 22.8243L6.82701 25V18.572L11.5958 16.2726ZM5.02948 18.572V24.9962L0.526675 22.8243C0.36966 22.7487 0.23651 22.6268 0.143121 22.4733C0.0497316 22.3197 4.77628e-05 22.1409 0 21.9582V16.145L5.03307 18.572H5.02948ZM13.3934 12.8958V6.46585L18.4318 4.03701V9.85404C18.4318 10.0367 18.3821 10.2155 18.2887 10.3691C18.1953 10.5226 18.0622 10.6445 17.9052 10.7201L13.3934 12.8958ZM18.6925 12.1915C18.8093 12.1352 18.9362 12.1061 19.0646 12.1061C19.1929 12.1061 19.3198 12.1352 19.4367 12.1915L24.1462 14.4604L19.0592 16.914L13.9812 14.4604L18.6943 12.1877L18.6925 12.1915ZM5.55975 12.1915C5.6766 12.1352 5.80347 12.1061 5.93184 12.1061C6.0602 12.1061 6.18708 12.1352 6.30393 12.1915L11.0134 14.4604L5.92824 16.9159L0.846635 14.4604L5.55975 12.1915Z" fill="#F5F5F5"/>
</svg>
