<svg width="25" height="25" viewBox="0 0 25 25" fill="none" xmlns="http://www.w3.org/2000/svg">
<path d="M25 7.14286C25 9.11272 23.5986 10.7143 21.875 10.7143H13.6719V14.2857H15.9229C16.9678 14.2857 17.4902 15.731 16.7529 16.5737L13.3301 20.4799C12.8711 21.0045 12.1289 21.0045 11.6748 20.4799L8.25195 16.5737C7.51465 15.731 8.03711 14.2857 9.08203 14.2857H11.333V10.7143H3.125C1.40137 10.7143 0 9.11272 0 7.14286V3.57143C0 1.60156 1.40137 0 3.125 0H21.875C23.5986 0 25 1.60156 25 3.57143V7.14286ZM21.875 21.4286V17.8571H17.8369L17.8564 17.8348C18.7549 16.808 18.8525 15.3962 18.3936 14.2857H21.875C23.5986 14.2857 25 15.8873 25 17.8571V21.4286C25 23.3984 23.5986 25 21.875 25H3.125C1.40137 25 0 23.3984 0 21.4286V17.8571C0 15.8873 1.40137 14.2857 3.125 14.2857H6.60645C6.14746 15.3962 6.24512 16.808 7.14355 17.8348L7.16309 17.8571H3.125V21.4286H10.2881L10.5664 21.7467C11.6357 22.9688 13.3643 22.9688 14.4336 21.7467L14.7119 21.4286H21.875Z" fill="#5C5C5C"/>
</svg>
