<svg width="40" height="40" viewBox="0 0 40 40" fill="none" xmlns="http://www.w3.org/2000/svg">
<path d="M26.7679 35.91C27.2365 35.4412 27.4998 34.8054 27.4998 34.1425C27.4998 33.4796 27.2365 32.8438 26.7679 32.375L14.3929 20L26.7679 7.625C27.2233 7.15349 27.4752 6.52199 27.4695 5.86649C27.4639 5.211 27.2009 4.58397 26.7374 4.12045C26.2739 3.65693 25.6469 3.39401 24.9914 3.38831C24.3359 3.38262 23.7044 3.63461 23.2329 4.09L9.09036 18.2325C8.62169 18.7013 8.3584 19.3371 8.3584 20C8.3584 20.6629 8.62169 21.2987 9.09036 21.7675L23.2329 35.91C23.7017 36.3787 24.3375 36.642 25.0004 36.642C25.6633 36.642 26.299 36.3787 26.7679 35.91Z" fill="#CCCCCC"/>
</svg>
