<svg width="40" height="40" viewBox="0 0 40 40" fill="none" xmlns="http://www.w3.org/2000/svg">
<path d="M13.2321 4.09C12.7635 4.55882 12.5002 5.19459 12.5002 5.8575C12.5002 6.52041 12.7635 7.15618 13.2321 7.625L25.6071 20L13.2321 32.375C12.7767 32.8465 12.5248 33.478 12.5305 34.1335C12.5361 34.789 12.7991 35.416 13.2626 35.8796C13.7261 36.3431 14.3531 36.606 15.0086 36.6117C15.6641 36.6174 16.2956 36.3654 16.7671 35.91L30.9096 21.7675C31.3783 21.2987 31.6416 20.6629 31.6416 20C31.6416 19.3371 31.3783 18.7013 30.9096 18.2325L16.7671 4.09C16.2983 3.62132 15.6625 3.35803 14.9996 3.35803C14.3367 3.35803 13.701 3.62132 13.2321 4.09Z" fill="#CCCCCC"/>
</svg>
